# Blender 4.1.1
# www.blender.org
mtllib quick.mtl
o Cube
v 0.045678 0.016305 0.698173
v 0.045678 2.016305 0.698173
v 1.413476 0.016305 2.157327
v 1.413476 2.016305 2.157327
v -1.413476 0.016305 2.065971
v -1.413476 2.016305 2.065971
v -0.045678 0.016305 3.525125
v -0.045678 2.016305 3.525125
v 1.869251 0.016305 0.594043
v 1.869251 2.016305 0.594043
v 3.869046 0.016305 0.622696
v 3.869046 2.016305 0.622696
v 1.840598 0.016305 2.593837
v 1.840598 2.016305 2.593837
v 3.840392 0.016305 2.622491
v 3.840392 2.016305 2.622491
v 0.285456 1.953052 1.050330
v 0.285456 3.953052 1.050330
v 2.253537 1.953052 0.694441
v 2.253537 3.953052 0.694441
v 0.641345 1.953052 3.018411
v 0.641345 3.953052 3.018411
v 2.609426 1.953052 2.662522
v 2.609426 3.953052 2.662522
vn 0.7296 -0.0000 -0.6839
vn 0.6839 -0.0000 0.7296
vn -0.7296 -0.0000 0.6839
vn -0.6839 -0.0000 -0.7296
vn -0.0000 -1.0000 -0.0000
vn -0.0000 1.0000 -0.0000
vn 0.0143 -0.0000 -0.9999
vn 0.9999 -0.0000 0.0143
vn -0.0143 -0.0000 0.9999
vn -0.9999 -0.0000 -0.0143
vn -0.1779 -0.0000 -0.9840
vn 0.9840 -0.0000 -0.1779
vn 0.1779 -0.0000 0.9840
vn -0.9840 -0.0000 0.1779
vt 0.375000 0.000000
vt 0.625000 0.000000
vt 0.625000 0.250000
vt 0.375000 0.250000
vt 0.625000 0.500000
vt 0.375000 0.500000
vt 0.625000 0.750000
vt 0.375000 0.750000
vt 0.625000 1.000000
vt 0.375000 1.000000
vt 0.125000 0.500000
vt 0.125000 0.750000
vt 0.875000 0.500000
vt 0.875000 0.750000
s 0
f 1/1/1 2/2/1 4/3/1 3/4/1
f 3/4/2 4/3/2 8/5/2 7/6/2
f 7/6/3 8/5/3 6/7/3 5/8/3
f 5/8/4 6/7/4 2/9/4 1/10/4
f 3/11/5 7/6/5 5/8/5 1/12/5
f 8/5/6 4/13/6 2/14/6 6/7/6
f 9/1/7 10/2/7 12/3/7 11/4/7
f 11/4/8 12/3/8 16/5/8 15/6/8
f 15/6/9 16/5/9 14/7/9 13/8/9
f 13/8/10 14/7/10 10/9/10 9/10/10
f 11/11/5 15/6/5 13/8/5 9/12/5
f 16/5/6 12/13/6 10/14/6 14/7/6
f 17/1/11 18/2/11 20/3/11 19/4/11
f 19/4/12 20/3/12 24/5/12 23/6/12
f 23/6/13 24/5/13 22/7/13 21/8/13
f 21/8/14 22/7/14 18/9/14 17/10/14
f 19/11/5 23/6/5 21/8/5 17/12/5
f 24/5/6 20/13/6 18/14/6 22/7/6
